# xmcd CD database file
#
# Track frame offsets:
#	150
#	12720
#	31365
#	49540
#	70412
#	89757
#	114350
#	125752
#	157892
#	177995
#	190055
#
# Disc length: 2810 seconds
#
# Revision: 0
# Processed by: cddbd v1.5.1PL0 Copyright (c) Steve Scherf et al.
# Submitted via: CDex 1.51
#
DISCID=950af80b
DTITLE=Peter Kane 's Sugar Cane Train - Millenium Blues
DYEAR=2001
DGENRE=Blues
TTITLE0=Ready for the dance
TTITLE1=I'm your man
TTITLE2=On the cover for one day
TTITLE3=It hurts to be in love
TTITLE4=Help me my love
TTITLE5=Nightfly
TTITLE6=Don't call me, I'll call you
TTITLE7=You better watch yourself
TTITLE8=Little green eye
TTITLE9=Automobile
TTITLE10=I can breathe again
EXTD=YEAR: 2001
EXTT0=
EXTT1=
EXTT2=
EXTT3=
EXTT4=
EXTT5=
EXTT6=
EXTT7=
EXTT8=
EXTT9=
EXTT10=
PLAYORDER=
